<svg width="20" height="20" viewBox="0 0 20 20" fill="none" xmlns="http://www.w3.org/2000/svg">
<path d="M18.8 10.2084C18.8 9.55837 18.7417 8.93337 18.6333 8.33337H10V11.8834H14.9333C14.7167 13.025 14.0667 13.9917 13.0917 14.6417V16.95H16.0667C17.8 15.35 18.8 13 18.8 10.2084Z" fill="#4285F4"/>
<path d="M10.0002 19.1667C12.4752 19.1667 14.5502 18.35 16.0669 16.95L13.0919 14.6417C12.2752 15.1917 11.2336 15.525 10.0002 15.525C7.61689 15.525 5.59189 13.9167 4.86689 11.75H1.81689V14.1167C3.32523 17.1083 6.41689 19.1667 10.0002 19.1667Z" fill="#34A853"/>
<path d="M4.86683 11.7417C4.6835 11.1917 4.57516 10.6084 4.57516 10.0001C4.57516 9.39172 4.6835 8.80839 4.86683 8.25839V5.89172H1.81683C1.19183 7.12506 0.833496 8.51672 0.833496 10.0001C0.833496 11.4834 1.19183 12.8751 1.81683 14.1084L4.19183 12.2584L4.86683 11.7417Z" fill="#FBBC05"/>
<path d="M10.0002 4.48337C11.3502 4.48337 12.5502 4.95004 13.5086 5.85004L16.1336 3.22504C14.5419 1.74171 12.4752 0.833374 10.0002 0.833374C6.41689 0.833374 3.32523 2.89171 1.81689 5.89171L4.86689 8.25837C5.59189 6.09171 7.61689 4.48337 10.0002 4.48337Z" fill="#EA4335"/>
</svg>
