<svg width="167" height="74" viewBox="0 0 167 74" fill="none" xmlns="http://www.w3.org/2000/svg">
<g filter="url(#filter0_d_590_669)">
<rect x="8" y="6" width="151" height="57.0375" rx="8" fill="white"/>
<rect x="8.5" y="6.5" width="150" height="56.0375" rx="7.5" stroke="#DDDDDD"/>
</g>
<path d="M51.6985 41L44.8349 34L51.6985 27" stroke="black" stroke-width="2" stroke-linecap="round" stroke-linejoin="round"/>
<path d="M71.5604 33.432C72.4564 33.592 73.2164 34.064 73.8404 34.848C74.4644 35.632 74.7764 36.52 74.7764 37.512C74.7764 38.36 74.5524 39.128 74.1044 39.816C73.6724 40.488 73.0404 41.024 72.2084 41.424C71.3764 41.808 70.4084 42 69.3044 42H62.6324V25.32H68.9924C70.1284 25.32 71.1044 25.512 71.9204 25.896C72.7364 26.28 73.3524 26.8 73.7684 27.456C74.1844 28.096 74.3924 28.816 74.3924 29.616C74.3924 30.576 74.1364 31.376 73.6244 32.016C73.1124 32.656 72.4244 33.128 71.5604 33.432ZM65.3684 32.328H68.7524C69.6484 32.328 70.3444 32.128 70.8404 31.728C71.3524 31.312 71.6084 30.72 71.6084 29.952C71.6084 29.2 71.3524 28.616 70.8404 28.2C70.3444 27.768 69.6484 27.552 68.7524 27.552H65.3684V32.328ZM69.0644 39.768C69.9924 39.768 70.7204 39.544 71.2484 39.096C71.7764 38.648 72.0404 38.024 72.0404 37.224C72.0404 36.408 71.7604 35.76 71.2004 35.28C70.6404 34.8 69.8964 34.56 68.9684 34.56H65.3684V39.768H69.0644ZM76.8376 35.328C76.8376 34 77.1096 32.824 77.6536 31.8C78.2136 30.776 78.9656 29.984 79.9096 29.424C80.8696 28.848 81.9256 28.56 83.0776 28.56C84.1176 28.56 85.0216 28.768 85.7896 29.184C86.5736 29.584 87.1976 30.088 87.6616 30.696V28.776H90.4216V42H87.6616V40.032C87.1976 40.656 86.5656 41.176 85.7656 41.592C84.9656 42.008 84.0536 42.216 83.0296 42.216C81.8936 42.216 80.8536 41.928 79.9096 41.352C78.9656 40.76 78.2136 39.944 77.6536 38.904C77.1096 37.848 76.8376 36.656 76.8376 35.328ZM87.6616 35.376C87.6616 34.464 87.4696 33.672 87.0856 33C86.7176 32.328 86.2296 31.816 85.6216 31.464C85.0136 31.112 84.3576 30.936 83.6536 30.936C82.9496 30.936 82.2936 31.112 81.6856 31.464C81.0776 31.8 80.5816 32.304 80.1976 32.976C79.8296 33.632 79.6456 34.416 79.6456 35.328C79.6456 36.24 79.8296 37.04 80.1976 37.728C80.5816 38.416 81.0776 38.944 81.6856 39.312C82.3096 39.664 82.9656 39.84 83.6536 39.84C84.3576 39.84 85.0136 39.664 85.6216 39.312C86.2296 38.96 86.7176 38.448 87.0856 37.776C87.4696 37.088 87.6616 36.288 87.6616 35.376ZM93.1032 35.376C93.1032 34.016 93.3752 32.824 93.9192 31.8C94.4792 30.76 95.2472 29.96 96.2232 29.4C97.1992 28.84 98.3192 28.56 99.5832 28.56C101.183 28.56 102.503 28.944 103.543 29.712C104.599 30.464 105.311 31.544 105.679 32.952H102.727C102.487 32.296 102.103 31.784 101.575 31.416C101.047 31.048 100.383 30.864 99.5832 30.864C98.4632 30.864 97.5672 31.264 96.8952 32.064C96.2392 32.848 95.9112 33.952 95.9112 35.376C95.9112 36.8 96.2392 37.912 96.8952 38.712C97.5672 39.512 98.4632 39.912 99.5832 39.912C101.167 39.912 102.215 39.216 102.727 37.824H105.679C105.295 39.168 104.575 40.24 103.519 41.04C102.463 41.824 101.151 42.216 99.5832 42.216C98.3192 42.216 97.1992 41.936 96.2232 41.376C95.2472 40.8 94.4792 40 93.9192 38.976C93.3752 37.936 93.1032 36.736 93.1032 35.376ZM113.638 35.4L119.734 42H116.038L111.142 36.312V42H108.406V24.24H111.142V34.56L115.942 28.776H119.734L113.638 35.4Z" fill="#333333"/>
<defs>
<filter id="filter0_d_590_669" x="0" y="0" width="167" height="73.0375" filterUnits="userSpaceOnUse" color-interpolation-filters="sRGB">
<feFlood flood-opacity="0" result="BackgroundImageFix"/>
<feColorMatrix in="SourceAlpha" type="matrix" values="0 0 0 0 0 0 0 0 0 0 0 0 0 0 0 0 0 0 127 0" result="hardAlpha"/>
<feOffset dy="2"/>
<feGaussianBlur stdDeviation="4"/>
<feColorMatrix type="matrix" values="0 0 0 0 0 0 0 0 0 0 0 0 0 0 0 0 0 0 0.08 0"/>
<feBlend mode="normal" in2="BackgroundImageFix" result="effect1_dropShadow_590_669"/>
<feBlend mode="normal" in="SourceGraphic" in2="effect1_dropShadow_590_669" result="shape"/>
</filter>
</defs>
</svg>
