<svg width="37" height="37" viewBox="0 0 37 37" fill="none" xmlns="http://www.w3.org/2000/svg">
<path d="M24.1613 11.3053C24.1613 12.6881 23.612 14.0143 22.6341 14.992C21.6564 15.9698 20.3302 16.5192 18.9475 16.5192C17.5647 16.5192 16.2385 15.9698 15.2607 14.992C14.283 14.0143 13.7337 12.6881 13.7337 11.3053C13.7337 9.92256 14.283 8.59641 15.2607 7.61864C16.2385 6.64086 17.5647 6.09155 18.9475 6.09155C20.3302 6.09155 21.6564 6.64086 22.6341 7.61864C23.612 8.59641 24.1613 9.92256 24.1613 11.3053ZM32.8509 14.7812C32.8509 15.7031 32.4847 16.5872 31.8329 17.239C31.181 17.8909 30.2969 18.2571 29.3751 18.2571C28.4532 18.2571 27.5691 17.8909 26.9173 17.239C26.2654 16.5872 25.8992 15.7031 25.8992 14.7812C25.8992 13.8594 26.2654 12.9752 26.9173 12.3234C27.5691 11.6716 28.4532 11.3053 29.3751 11.3053C30.2969 11.3053 31.181 11.6716 31.8329 12.3234C32.4847 12.9752 32.8509 13.8594 32.8509 14.7812ZM25.8992 26.9467C25.8992 25.103 25.1668 23.3348 23.8631 22.0311C22.5594 20.7274 20.7912 19.995 18.9475 19.995C17.1038 19.995 15.3356 20.7274 14.0319 22.0311C12.7281 23.3348 11.9957 25.103 11.9957 26.9467V32.1605H25.8992V26.9467Z" fill="white"/>
</svg>
