<svg width="37" height="37" viewBox="0 0 37 37" fill="none" xmlns="http://www.w3.org/2000/svg">
<mask id="mask0_621_865" style="mask-type:luminance" maskUnits="userSpaceOnUse" x="0" y="0" width="36" height="36">
<path d="M35.3399 0.877686H0.581299V35.6363H35.3399V0.877686Z" fill="white"/>
</mask>
<g mask="url(#mask0_621_865)">
<path d="M16.2228 21.7332L19.6987 25.209L26.6504 18.2573M37.078 21.7332C37.078 23.7872 36.6734 25.8212 35.8874 27.7189C35.1013 29.6166 33.9492 31.3408 32.4968 32.7933C31.0444 34.2458 29.3201 35.3979 27.4223 36.184C25.5246 36.97 23.4907 37.3746 21.4366 37.3746C19.3826 37.3746 17.3486 36.97 15.4509 36.184C13.5532 35.3979 11.829 34.2458 10.3765 32.7933C8.9241 31.3408 7.77196 29.6166 6.98591 27.7189C6.19985 25.8212 5.79529 23.7872 5.79529 21.7332C5.79529 17.5849 7.44321 13.6064 10.3765 10.673C13.3098 7.73973 17.2883 6.0918 21.4366 6.0918C25.5851 6.0918 29.5634 7.73973 32.4968 10.673C35.4301 13.6064 37.078 17.5849 37.078 21.7332Z" fill="white"/>
</g>
</svg>
